<svg xmlns="http://www.w3.org/2000/svg" width="194" height="33" viewBox="0 0 194 33">
    <path data-name="패스 2" d="M152.339 5.636v.127a1.585 1.585 0 0 1-1.553 1.616h-12.211a1.585 1.585 0 0 1-1.553-1.616v-.127a1.586 1.586 0 0 1 1.553-1.616h12.212a1.585 1.585 0 0 1 1.552 1.616zm-15.317 10.207v-.08a1.586 1.586 0 0 1 1.553-1.616h8.458a1.585 1.585 0 0 1 1.553 1.616v.08a1.585 1.585 0 0 1-1.553 1.616h-8.458a1.585 1.585 0 0 1-1.553-1.616zm3.228 8.337h10.536a1.585 1.585 0 0 1 1.553 1.616v.127a1.585 1.585 0 0 1-1.553 1.616h-12.211a1.585 1.585 0 0 1-1.553-1.616v-.138a1.586 1.586 0 0 1 1.553-1.616h1.676z" transform="translate(24.217 .687)" style="fill:#fff"/>
    <path data-name="패스 3" d="M60.957 11.545c0 4.41-2.823 7.874-7.6 7.874H50.2a1.649 1.649 0 0 0-1.614 1.68v4.76a1.615 1.615 0 1 1-3.228 0v-8.12a1.648 1.648 0 0 1 1.614-1.68h6.423c2.353 0 4.338-1.261 4.338-4.3s-2.185-4.375-4.539-4.375H46.97A1.648 1.648 0 0 1 45.356 5.7a1.648 1.648 0 0 1 1.614-1.68h5.381c5.884 0 8.607 3.08 8.607 7.526z" transform="translate(7.991 .687)" style="fill:#fff"/>
    <path data-name="패스 4" d="M63.466 4.02A1.648 1.648 0 0 1 65.08 5.7v20.16a1.615 1.615 0 1 1-3.228 0V5.7a1.649 1.649 0 0 1 1.614-1.68zm3.456 21.84a1.648 1.648 0 0 1 1.614-1.68h4.077a1.681 1.681 0 0 1 0 3.36h-4.077a1.649 1.649 0 0 1-1.614-1.68z" transform="translate(10.891 .687)" style="fill:#fff"/>
    <path data-name="패스 5" d="M136.516 25.894V5.793a1.721 1.721 0 0 0-1.088-1.664 1.631 1.631 0 0 0-2.14 1.593V18.96a1.039 1.039 0 0 1-.745 1.01.982.982 0 0 1-1.011-.314L120.17 6.368a1.609 1.609 0 0 0-1.875-.491 1.719 1.719 0 0 0-.581 2.671l15.879 18.57a1.615 1.615 0 0 0 .862.629c.029.01.059.021.089.028a1.247 1.247 0 0 0 .126.02 1.619 1.619 0 0 0 .219.023h.04A1.564 1.564 0 0 0 136 27.4a1.718 1.718 0 0 0 .521-1.5z" transform="translate(20.68 .691)" style="fill:#fff"/>
    <path data-name="패스 6" d="M120.285 12.289a1.547 1.547 0 0 0-2.653 1.129v10.975a1.577 1.577 0 0 0 1.553 1.6h.121a1.577 1.577 0 0 0 1.553-1.6V13.545a1.624 1.624 0 0 0-.452-1.129l-.122-.127z" transform="translate(20.684 2.232)" style="fill:#fff"/>
    <path data-name="패스 7" d="M152.135 5.7v-.064a1.585 1.585 0 0 1 1.553-1.616h11.959a1.585 1.585 0 0 1 1.553 1.616V5.7a1.585 1.585 0 0 1-1.553 1.616h-11.959a1.585 1.585 0 0 1-1.553-1.616zm5.918 20.22V10.853a1.585 1.585 0 0 1 1.553-1.616h.122a1.585 1.585 0 0 1 1.553 1.616v15.07a1.585 1.585 0 0 1-1.553 1.616h-.122a1.585 1.585 0 0 1-1.553-1.616z" transform="translate(26.801 .687)" style="fill:#fff"/>
    <path data-name="패스 8" d="M84.21 3.766a11.827 11.827 0 0 0-11.584 12.056 11.593 11.593 0 1 0 23.168 0A11.827 11.827 0 0 0 84.21 3.766zm0 20.75a8.528 8.528 0 0 1-8.353-8.693 8.36 8.36 0 1 1 16.706 0 8.529 8.529 0 0 1-8.353 8.693z" transform="translate(12.812 .644)" style="fill:#fff"/>
    <path data-name="패스 9" d="M106.358 3.766a11.827 11.827 0 0 0-11.584 12.056 11.593 11.593 0 1 0 23.168 0 11.827 11.827 0 0 0-11.584-12.056zm0 20.75a8.528 8.528 0 0 1-8.353-8.693 8.36 8.36 0 1 1 16.706 0 8.53 8.53 0 0 1-8.353 8.693z" transform="translate(16.719 .644)" style="fill:#fff"/>
    <path data-name="패스 10" d="M39.785 7.056 35.4 8.713A15.632 15.632 0 0 0 15.977 1 16.6 16.6 0 0 0 5.875 19.87L1.49 21.528A2.376 2.376 0 0 0 .137 24.54a2.242 2.242 0 0 0 2.9 1.4l4.384-1.657A15.631 15.631 0 0 0 26.846 32a16.6 16.6 0 0 0 10.1-18.873l4.384-1.657a2.376 2.376 0 0 0 1.353-3.012 2.242 2.242 0 0 0-2.9-1.4zm-14.5 20.488a11.209 11.209 0 0 1-14.511-7.024 11.88 11.88 0 0 1 6.767-15.063 11.119 11.119 0 0 1 13.521 4.9l-6.28 2.372a2.376 2.376 0 0 0-1.353 3.012 2.242 2.242 0 0 0 2.9 1.4l6.28-2.372a11.813 11.813 0 0 1-7.327 12.774z" style="fill:#fff"/>
</svg>
