<svg xmlns="http://www.w3.org/2000/svg" width="40" height="32" viewBox="0 0 40 32">
    <g data-name="그룹 31980">
        <g data-name="그룹 31913">
            <path data-name="사각형 36565" style="fill:none" d="M0 0h40v32H0z"/>
        </g>
        <g data-name="그룹 31978">
            <path data-name="패스 16380" d="M115.622 243a6.728 6.728 0 1 0 6.715-7.141 6.946 6.946 0 0 0-6.715 7.141zm7.941-3.371a6.137 6.137 0 0 0 3.818 3.371 5.061 5.061 0 1 1-10.088 0 7.687 7.687 0 0 0 6.27-3.375z" transform="translate(-98.58 -229.918)" style="fill:#708698"/>
            <path data-name="패스 16381" d="M119.027 276.724a7.479 7.479 0 0 1-9.858 0 10.9 10.9 0 0 0-5.974 9.725H125a10.9 10.9 0 0 0-5.973-9.725z" transform="translate(-90.341 -257.013)" style="fill:#708698"/>
            <path data-name="패스 16382" d="M98.636 234.834a4.734 4.734 0 0 0 1.072-.126 8.573 8.573 0 0 1 3.752-6.638 5.077 5.077 0 0 0-4.824-3.9 5.341 5.341 0 0 0 0 10.661z" transform="translate(-83.996 -222.173)" style="fill:#708698"/>
            <path data-name="패스 16383" d="M94.629 261.754a8.678 8.678 0 0 1-2.03-4.8 5.876 5.876 0 0 1-1.1.1 5.982 5.982 0 0 1-3.906-1.469 8.638 8.638 0 0 0-4.734 7.706h9.614a12.351 12.351 0 0 1 2.156-1.537z" transform="translate(-76.86 -242.998)" style="fill:#708698"/>
        </g>
    </g>
</svg>
