<svg xmlns="http://www.w3.org/2000/svg" width="40" height="32" viewBox="0 0 40 32">
    <g data-name="그룹 31982">
        <g data-name="그룹 31956">
            <g data-name="그룹 31921">
                <g data-name="그룹 31918">
                    <path data-name="사각형 36566" style="fill:none" d="M0 0h40v32H0z"/>
                </g>
            </g>
        </g>
        <g data-name="그룹 31979">
            <path data-name="패스 16384" d="M147.127 804.489a.578.578 0 1 0 .578-.578.578.578 0 0 0-.578.578z" transform="translate(-121.698 -789.307)" style="fill:#708698"/>
            <path data-name="패스 16385" d="M93.747 804.489a.578.578 0 1 0 .578-.578.578.578 0 0 0-.578.578z" transform="translate(-81.969 -789.307)" style="fill:#708698"/>
            <path data-name="패스 16386" d="M121.015 778.376a.578.578 0 1 0-.578-.578.578.578 0 0 0 .578.578z" transform="translate(-101.833 -769.442)" style="fill:#708698"/>
            <path data-name="패스 16387" d="M120.437 831.179a.578.578 0 1 0 .578-.578.578.578 0 0 0-.578.578z" transform="translate(-101.833 -809.171)" style="fill:#708698"/>
            <path data-name="패스 16388" d="M113.025 796.95a1.152 1.152 0 0 0-.343-.821v-1.534a.813.813 0 1 0-1.625 0v1.534a1.124 1.124 0 0 0-.3 1.117l-2.438 2.438a.578.578 0 0 0 .817.817l2.438-2.438a1.144 1.144 0 0 0 .3.043 1.156 1.156 0 0 0 1.151-1.156z" transform="translate(-92.687 -781.768)" style="fill:#708698"/>
            <path data-name="패스 16389" d="m138.818 824.609-4.042-6.871a.926.926 0 0 0-1.6 0l-4.042 6.871a.927.927 0 0 0 .8 1.4h8.084a.927.927 0 0 0 .8-1.4zm-5.395-4.2a.554.554 0 0 1 1.109 0v1.871a.554.554 0 0 1-1.109 0zm.554 4.018a.64.64 0 1 1 .641-.64.64.64 0 0 1-.641.64z" transform="translate(-108.212 -799.257)" style="fill:#708698"/>
            <path data-name="패스 16390" d="M93.065 784.86a8.32 8.32 0 1 1 7.97-5.925 1.97 1.97 0 0 1 .294.382l.934 1.588a10.182 10.182 0 1 0-9.2 5.814c.219 0 .437-.009.652-.023a1.986 1.986 0 0 1 .209-.508l.891-1.515a8.358 8.358 0 0 1-1.75.187z" transform="translate(-73.883 -761.356)" style="fill:#708698"/>
        </g>
    </g>
</svg>
