<svg xmlns="http://www.w3.org/2000/svg" width="40" height="32" viewBox="0 0 40 32">
    <g data-name="그룹 31985">
        <g data-name="그룹 31981">
            <g data-name="그룹 31956">
                <g data-name="그룹 31921">
                    <g data-name="그룹 31918">
                        <path data-name="사각형 36566" style="fill:none" d="M0 0h40v32H0z"/>
                    </g>
                </g>
            </g>
        </g>
        <g data-name="그룹 31984">
            <g data-name="그룹 31979">
                <path data-name="패스 16388" d="M113.025 796.95a1.152 1.152 0 0 0-.343-.821v-1.534a.813.813 0 1 0-1.625 0v1.534a1.124 1.124 0 0 0-.3 1.117l-2.438 2.438a.578.578 0 0 0 .817.817l2.438-2.438a1.144 1.144 0 0 0 .3.043 1.156 1.156 0 0 0 1.151-1.156z" transform="translate(-92.406 -780.382)" style="fill:#708698"/>
            </g>
            <g data-name="그룹 31983">
                <path data-name="패스 16391" d="M972.179 397.12a9.712 9.712 0 0 1-3.138-2.51 1.287 1.287 0 1 0-1.992 1.631 12.285 12.285 0 0 0 3.977 3.182 1.288 1.288 0 0 0 1.153-2.3z" transform="translate(-957.303 -372.382)" style="fill:#708698"/>
                <path data-name="패스 16392" d="M987.332 403.386a9.745 9.745 0 0 1-1.888 0 1.288 1.288 0 1 0-.246 2.564 12.254 12.254 0 0 0 2.388-.003 1.287 1.287 0 1 0-.254-2.562z" transform="translate(-967.219 -377.687)" style="fill:#708698"/>
                <path data-name="패스 16393" d="M987.182 362.18a1.289 1.289 0 0 0-1.822 0l-.247.247a12.16 12.16 0 1 0-23.7 5.353 1.288 1.288 0 1 0 2.487-.669 9.619 9.619 0 0 1-.328-2.495A9.585 9.585 0 0 1 982.4 362.1a1.284 1.284 0 0 0-1.72 1.9l2.339 2.339a1.289 1.289 0 0 0 1.822 0l2.341-2.339a1.289 1.289 0 0 0 0-1.82z" transform="translate(-953.994 -348.456)" style="fill:#708698"/>
                <path data-name="패스 16394" d="M1000.317 399.475a1.359 1.359 0 1 0 1.359 1.359 1.359 1.359 0 0 0-1.359-1.359z" transform="translate(-975.787 -375.446)" style="fill:#708698"/>
            </g>
        </g>
        <path data-name="패스 16395" d="M121.015 778.376a.578.578 0 1 0-.578-.578.578.578 0 0 0 .578.578z" transform="translate(-101.593 -767.442)" style="fill:#708698"/>
        <path data-name="패스 16396" d="M121.015 778.376a.578.578 0 1 0-.578-.578.578.578 0 0 0 .578.578z" transform="translate(-101.593 -755.442)" style="fill:#708698"/>
        <path data-name="패스 16397" d="M121.015 778.376a.578.578 0 1 0-.578-.578.578.578 0 0 0 .578.578z" transform="translate(-107.593 -761.52)" style="fill:#708698"/>
    </g>
</svg>
